<?xml version="1.0" encoding="UTF-8"?>
<svg xmlns="http://www.w3.org/2000/svg" version="1.1" viewBox="0 0 1920 1080">
  <defs>
    <style>
      .cls-1 {
        fill: none;
        stroke: #f4b34a;
        stroke-miterlimit: 10;
        stroke-width: 8px;
      }

      .cls-2 {
        font-family: WendyLPLight, 'Wendy LP Light';
        font-size: 200px;
        letter-spacing: .2em;
        stroke: #000;
      }
    </style>
  </defs>
  <!-- Generator: Adobe Illustrator 28.7.0, SVG Export Plug-In . SVG Version: 1.2.0 Build 55)  -->
  <g>
    <mask id="mask-wrapper">
    <g id="mask">
      <path id="pass" class="cls-1" d="M1325,593l-2.6,5.1c-.3.6-.5,1.2-.7,1.8h0c-.5,1.4-1,2.7-1.7,4h0c-.7,1.4-1.4,2.7-2.3,4h0c-.5.7-1,1.4-1.7,2l-.9.9c-1.4,1.4-3.1,2.6-4.9,3.5h0c-2.2,1.1-4.5,1.9-6.8,2.3h0c-.9.2-1.9,0-2.8-.3h0c-2.4-1-4.6-2.4-6.4-4.2h0c-1.5-1.5-2.6-3.2-3.4-5.1h0c-.6-1.4-1-2.8-1.4-4.2l-1.5-5.5c-.6-2.2-.9-4.5-.9-6.9h0c0-2.3.4-4.6,1.3-6.8h0c.4-.9,1.5-1.2,2.3-.7h0c.9.6,1.3,1.6,1,2.6l-3.6,14.3-2,5.3c-.7,1.8-1.5,3.5-2.6,5.1h0c-.3.4-.6.8-.9,1.1l-2.3,2.3c-.8.8-1.6,1.5-2.5,2.2l-.5.4c-2.1,1.7-4.5,3.1-6.9,4.2h0c-2.1.9-4.5,1.1-6.7.7h0c-1-.2-2-.5-2.9-1h0c-1.7-.9-3.3-2-4.7-3.4h0c-.6-.6-1.1-1.4-1.4-2.2h0c-1-3.1-1.3-6.4-.8-9.7h0c.1-.7.3-1.4.5-2.1h0c1.1-3.9,2.8-7.7,5-11.2h0c1.1-1.8,2.4-3.6,3.7-5.4l2.4-3.2c1.1-1.5,2.4-2.8,3.8-3.9h0c1.9-1.5,3.9-2.9,6.1-4.1h0c2.5-1.4,5.3-2.2,8.1-2.2h0c1.7,0,3.2.8,4.1,2.2h0c1.2,1.8.2,4.3-1.9,4.7l-77.5,15.1-3.1,4.6c-.6.9-1.3,1.8-2,2.6l-.4.5c-3,3.5-6.6,6.5-10.6,8.8h0c-.6.4-1.3.6-2,.7h0c-3.1.5-6.4-.3-8.9-2.2h0s-.9-1.7-.9-1.7c-.8-1.5-1.4-3.1-2-4.7h0c-.8-2.4-1.3-4.8-1.6-7.2h0c-.4-2.9-1-5.8-2-8.6h0c-.4-1.2-1.1-2.2-2.1-2.9h0c-1.5-1.2-3.6-1.4-5.4-.7h0c-1.4.6-2.7,1.4-3.7,2.5l-1.7,1.7c-1.1,1.1-2.2,2.4-3,3.8h0c-2.5,4-4.8,8-6.8,12.2h0c-.6,1.2-1,2.4-1.3,3.6h0c-1.1,5.4-2.6,10.7-4.4,15.9l-1.2,3.2h0c1.3-4.6,2-9.5,2-14.3v-1.7s0-15.8,0-15.8c0-1.5,0-2.9.1-4.4h0c.6-9.2,1.6-18.4,3-27.5l1.3-8.4c.4-2.6,1-5.3,1.7-7.8l3.3-12c.4-1.4.9-2.9,1.4-4.3l2.1-5.4c1.4-3.7,3.4-7.1,6-10h0c1.4-1.6,3.2-2.7,5.3-3.1h0c1.1-.2,2.2.2,2.8,1.2h0c.6,1,1.1,2,1.4,3.2l.4,1.5c.8,3.2,1.1,6.4.8,9.7l-.5,5.9c0,.8-.2,1.6-.4,2.3h0c-1.8,7.2-4.4,14.2-7.7,20.8h0s-5,9-5,9l-6,10h0c-5.2,5.8-12.2,9.8-19.8,11.3l-35.8,6.9c-2.2.6-4.1,1.9-5.4,3.8h0c-1.4,2-2.9,4-4.5,5.9l-2.8,3.3c-.5.6-1.1,1.2-1.7,1.7h0c-3.4,2.8-7.1,5.1-11.2,6.8h0c-.6.3-1.3.4-1.9.4h0c-3.2,0-6.4-1.1-9-3h0s0,0,0,0c-2.6-2-4.7-4.6-6-7.6l-1-2.4h0c0-4,.3-8,.8-11.9h0c0-.8.2-1.4.3-2v-.4c.6-2.4,1.7-4.6,3.5-6.3l.9-.9c.2-.2.5-.1.6.2h0c.6,2.2.7,4.6.3,6.9h0c-.3,1.7-.7,3.3-1.4,4.9h0c-.7,1.7-1.5,3.4-2.4,5l-.9,1.5c-1.1,2-2.6,3.8-4.4,5.3l-4.4,3.7-8.1,6.3c-.6.5-1.3.9-2,1.2l-3.5,1.5c-1.6.7-3.3.9-5,.6l-1.2-.2c-1.4-.2-2.8-.8-3.9-1.7h0c-1.5-1.1-2.6-2.6-3.1-4.3h0c-.7-2.2-1.1-4.5-1.1-6.9h0c0-3,.2-6,.6-8.9h0c.2-1.7.7-3.4,1.3-5l2.1-5.6,2-4.6c.3-.7-.5-1.5-1.2-1l-53.8,32.6-2.5.9c-5.7,2.1-11.2,4.4-16.7,6.9l-6.4,3c-1.6.8-3.2,1.6-4.8,2.5l-7.2,4.2c-1.7,1-3.3,2-4.9,3.1l-11.7,8.3c-1.9,1.4-3.8,2.8-5.5,4.4l-5.1,4.6c-.8.7-1.6,1.5-2.3,2.2l-5.4,5.4c-.9.9-1.9,1.9-2.7,2.9l-2.1,2.5c-1.7,2-3.2,4.2-4.3,6.5l-.2.4c-1.3,2.6-1.8,5.6-1.4,8.5h0c.2,1.5,1.4,2.7,2.9,2.9h0c2.9.4,5.9.2,8.8-.5l.6-.2c4-1.1,7.9-2.7,11.5-4.8l2.3-1.3c4.1-2.4,8.1-5.1,11.7-8.3l4.1-3.5c3.6-3.2,6.8-6.8,9.5-10.8l7.7-11.6c1.5-2.3,2.6-4.7,3.3-7.4h0c1.3-5.3,1.6-10.8.7-16.2l-.5-3c-.2-1.2-.8-2.3-1.6-3.2h0c-2.4-2.4-5.5-3.9-8.8-4.3h0c-1.9-.2-3.8-.2-5.7.1l-7.7,1.3c-1,.2-1.9.5-2.7.9h0c-5.1,2.8-9.8,6.4-14,10.5h0c-.2.2,0,.4.2.3l5.1-2.2c.6-.3,1.2-.5,1.8-.9h0c5.4-3,10.4-6.7,14.7-11.1l4.6-4.6c1.2-1.2,2.3-2.5,3.4-3.9h0c2.9-3.9,4.6-8.5,4.8-13.4h0c0-.5,0-1.1,0-1.6h0c-.2-1.3-.7-2.6-1.4-3.7h0c-1.9-2.8-4.7-4.8-7.9-5.6h0c-1.9-.5-4-.5-5.9,0h0c-3.3.8-6.6,2-9.7,3.6h0c-.9.5-1.7,1-2.5,1.6h0c-3.2,2.7-6.2,5.7-8.8,8.9l-3.1,3.8c-1.2,1.5-3,2.4-4.9,2.4l-30.7,1.1c-3.9.1-7.8.2-11.6-.4s-3.3.4-4.4,1.8h0c-.2.3-.5.7-.7,1l-3.7,6.5h0c-3.3,4.6-7.5,8.6-12.2,11.7s-2.5,1.6-3.6,2.3c-1.6,1-3.1,2-7.1,1h0c-2.6-3.4-4-7.5-4-11.8s0-1.4,0-2.2c0,0,3.1-28.1,2-31s-2.5,15.9-3,19-3.4,7.8-6,11.2v.2c-3.3,4.1-5.4,6.8-8.5,10s-4.3,4.1-6.7,5.6-2.6,1.4-3.4,1.5l-38.3,2.1c-4.6.2-9.1-1-12.8-3.7s-1.8-1.3-2.6-1.8c-1.1-.8-1.9-1.8-2.5-2.9h0c-2-4.2-3.2-8.6-3.6-13.1v-.3c-.3-4.4-.2-8.9.6-13.5l.2-1.1c1.2-7.8,2.9-15.6,5-23.3s.4-1.6.7-2.4c2.1-7.6,3.3-15.4,3.8-23.3v-.2c.2-3.1-1.4-6-4.1-7.5l-.3-.2c-2.6-1.4-5.8-1.4-8.4,0l-.3.2c-2.9,1.6-5.7,3.6-8.2,6l-.3.2c-6.7,6.2-12.7,13.2-17.7,20.9l-5.7,8.6c-3,4.5-5.7,9.2-8.1,14.1s-8.1,16.7-10.7,22-2.7,4.6-4.6,6.5h-.1c-1.7,1.8-4.4,1.8-6.1.1l-.2-.2c-1.2-1.2-1.8-2.8-1.6-4.5l.6-6.2c.1-1.5.3-2.9.6-4.4l2.8-16.5c.6-3.5,1-7.1,1.3-10.7s.7-8.1,1-11.9-.6-8.8-2.7-12.7h0c-.9-1.7-3-2.3-4.5-1.3l-2.6,1.6c-5,3.1-9.5,6.9-13.3,11.5l-.2.2c-7.3,8.6-14.1,17.8-20.2,27.3l-23.8,37.5c-.4.6-1.3.2-1.2-.5l5.1-22.3,5.8-24.6c2.1-8.9,2.8-18,2-27.1v-.3c-.5-4.8-2.8-9.3-6.7-12.4l-.4-.3c-4.7-3.8-11.3-4.4-16.6-1.4l-7.2,4.1"/>
    </g>
    </mask>
    <g id="text">
      <text class="cls-2" transform="translate(599.8 623.4)"><tspan x="0" y="0">Mizuha</tspan></text>
    </g>
  </g>
</svg>